<?xml version="1.0" encoding="utf-8"?>
<!-- Uploaded to: SVG Repo, www.svgrepo.com, Generator: SVG Repo Mixer Tools -->
<svg fill="#000000" width="800px" height="800px" viewBox="0 0 32 32" version="1.1" xmlns="http://www.w3.org/2000/svg">
<title>circle-notch</title>
<path d="M20.357 1.382c-0.106-0.032-0.227-0.051-0.353-0.051-0.691 0-1.25 0.56-1.25 1.25 0 0.562 0.37 1.037 0.88 1.195l0.009 0.002c5.31 1.62 9.106 6.476 9.106 12.218 0 7.041-5.708 12.75-12.75 12.75s-12.75-5.708-12.75-12.75c0-5.742 3.796-10.598 9.016-12.194l0.090-0.024c0.519-0.16 0.889-0.635 0.889-1.197 0-0.69-0.56-1.25-1.25-1.25-0.125 0-0.247 0.018-0.361 0.053l0.009-0.002c-6.354 1.937-10.897 7.746-10.897 14.617 0 8.423 6.828 15.252 15.252 15.252s15.251-6.827 15.252-15.25v-0c-0.030-6.86-4.557-12.654-10.784-14.589l-0.109-0.029z"></path>
</svg>