<?xml version="1.0" standalone="no"?>
<!DOCTYPE svg PUBLIC "-//W3C//DTD SVG 20010904//EN"
 "http://www.w3.org/TR/2001/REC-SVG-20010904/DTD/svg10.dtd">
<svg version="1.0" xmlns="http://www.w3.org/2000/svg"
 width="499.000000pt" height="500.000000pt" viewBox="0 0 499.000000 500.000000"
 preserveAspectRatio="xMidYMid meet">

<g transform="translate(0.000000,500.000000) scale(0.100000,-0.100000)"
fill="#000000" stroke="none">
<path d="M1837 4908 c-21 -6 -41 -16 -43 -23 -4 -9 187 -670 255 -885 7 -20
14 -24 37 -22 16 2 33 7 37 11 6 6 -117 542 -203 884 -13 51 -17 52 -83 35z"/>
<path d="M3095 4908 c-23 -64 -223 -914 -217 -920 5 -5 21 -10 37 -11 l28 -2
89 290 c48 160 109 358 133 440 25 83 48 158 51 167 4 13 -7 20 -50 32 -65 19
-65 19 -71 4z"/>
<path d="M1593 4826 c-29 -11 -53 -25 -53 -31 0 -10 357 -865 364 -872 8 -8
58 10 63 23 4 12 -302 883 -316 895 -3 3 -30 -3 -58 -15z"/>
<path d="M3326 4773 c-14 -38 -88 -240 -164 -451 l-140 -383 25 -10 c13 -5 30
-9 37 -9 10 0 317 696 383 867 3 8 -90 53 -112 53 -2 0 -15 -30 -29 -67z"/>
<path d="M1348 4714 c-27 -13 -48 -28 -48 -32 0 -8 446 -821 456 -831 7 -7 64
22 64 33 -1 18 -406 850 -416 852 -5 2 -30 -8 -56 -22z"/>
<path d="M3541 4628 c-27 -57 -119 -246 -205 -420 -86 -175 -156 -322 -156
-328 0 -5 13 -16 29 -25 36 -18 3 -69 281 430 117 209 214 383 216 387 5 8
-88 58 -105 58 -6 0 -33 -46 -60 -102z"/>
<path d="M1125 4584 c-22 -15 -44 -30 -48 -34 -5 -4 114 -182 264 -396 150
-214 273 -390 274 -392 7 -9 64 35 60 46 -10 27 -497 802 -503 802 -4 0 -25
-12 -47 -26z"/>
<path d="M3575 4208 c-136 -216 -248 -398 -249 -406 -1 -13 50 -50 57 -42 18
19 547 771 547 777 0 9 -86 63 -99 63 -4 0 -120 -177 -256 -392z"/>
<path d="M909 4424 c-24 -20 -44 -40 -44 -44 0 -8 617 -719 625 -719 3 0 17
10 33 22 l27 23 -281 359 c-154 198 -288 368 -298 378 -17 17 -19 17 -62 -19z"/>
<path d="M3748 4080 c-161 -203 -294 -373 -295 -377 -1 -5 11 -18 26 -30 l29
-23 313 356 c173 196 315 360 317 364 3 7 -81 80 -92 80 -3 0 -137 -166 -298
-370z"/>
<path d="M713 4247 c-24 -26 -43 -48 -43 -50 0 -8 691 -642 703 -644 6 -2 20
9 30 23 l19 25 -146 152 c-80 84 -230 239 -333 346 l-188 194 -42 -46z"/>
<path d="M3908 3936 l-337 -343 28 -27 29 -28 351 323 c193 177 351 325 351
328 0 4 -19 26 -43 49 l-43 42 -336 -344z"/>
<path d="M544 4053 c-17 -21 -34 -44 -38 -50 -5 -9 117 -105 375 -298 l383
-285 23 22 c13 12 22 27 21 34 -3 11 -720 614 -730 614 -3 0 -18 -17 -34 -37z"/>
<path d="M4060 3785 c-195 -162 -359 -301 -365 -309 -6 -10 -4 -21 9 -35 11
-12 23 -21 28 -21 9 0 721 520 750 549 16 15 15 19 -19 64 -19 26 -38 47 -41
46 -4 0 -167 -133 -362 -294z"/>
<path d="M383 3827 c-17 -29 -29 -55 -25 -59 4 -3 180 -108 392 -234 212 -125
395 -233 406 -241 20 -13 23 -11 42 21 l20 34 -399 266 c-219 146 -400 266
-401 266 -2 0 -17 -24 -35 -53z"/>
<path d="M4545 3845 c-11 -7 -188 -124 -393 -259 l-373 -246 18 -30 c9 -17 20
-30 24 -30 6 0 297 169 736 426 l92 54 -31 50 c-33 53 -41 57 -73 35z"/>
<path d="M255 3595 c-14 -31 -25 -58 -23 -60 5 -5 864 -395 870 -395 11 0 31
61 22 69 -7 7 -809 428 -835 439 -4 2 -19 -22 -34 -53z"/>
<path d="M4535 3547 c-99 -51 -291 -150 -427 -221 l-247 -127 16 -35 c10 -19
22 -33 27 -30 48 20 820 368 840 378 l26 13 -28 57 -27 58 -180 -93z"/>
<path d="M151 3349 c-15 -44 -17 -61 -8 -65 58 -22 884 -294 893 -294 6 0 15
16 21 35 6 19 10 35 8 35 -1 0 -193 75 -426 166 -233 91 -434 170 -446 175
-20 7 -23 3 -42 -52z"/>
<path d="M4370 3221 c-239 -93 -435 -173 -434 -180 6 -71 -16 -75 469 83 246
80 450 148 453 151 9 9 -30 115 -42 114 -6 0 -207 -76 -446 -168z"/>
<path d="M85 3138 c-13 -40 -26 -101 -21 -105 3 -3 650 -146 908 -200 24 -5
28 -1 36 28 5 19 6 37 3 40 -6 6 -900 250 -914 249 -4 0 -10 -6 -12 -12z"/>
<path d="M4432 3017 l-453 -121 6 -36 c4 -19 8 -36 10 -38 1 -1 130 24 286 57
156 33 365 77 464 97 99 21 182 39 184 40 9 7 -23 124 -33 123 -6 0 -215 -55
-464 -122z"/>
<path d="M24 2834 c-7 -60 0 -73 41 -74 11 0 128 -11 260 -25 132 -14 327 -34
434 -46 107 -11 201 -17 208 -14 9 3 13 16 11 37 l-3 32 -200 32 c-110 18
-314 51 -453 73 -139 23 -262 41 -272 41 -15 0 -20 -11 -26 -56z"/>
<path d="M4830 2863 c-47 -8 -249 -40 -450 -71 l-365 -57 2 -33 c0 -19 3 -36
6 -38 3 -3 210 15 460 40 250 25 462 46 471 46 17 0 21 41 10 99 -7 36 -7 36
-134 14z"/>
<path d="M7 2623 c-4 -3 -7 -33 -7 -65 l0 -58 479 0 479 0 4 38 c3 20 5 38 4
39 -2 2 -910 53 -940 53 -7 0 -16 -3 -19 -7z"/>
<path d="M4500 2594 c-245 -12 -451 -23 -457 -23 -8 -1 -13 -16 -13 -41 l0
-40 480 0 480 0 0 65 c0 61 -1 65 -22 64 -13 -1 -223 -12 -468 -25z"/>
<path d="M765 2425 c-5 -2 -158 -8 -340 -14 -181 -7 -350 -14 -375 -17 l-45
-5 3 -60 c4 -71 -29 -68 327 -34 143 14 344 32 448 42 l187 17 0 38 0 38 -97
-1 c-54 0 -102 -2 -108 -4z"/>
<path d="M4026 2403 c-6 -6 -9 -73 -3 -73 1 0 214 -24 474 -53 391 -44 473
-51 478 -39 3 7 5 35 5 62 l0 48 -67 6 c-38 3 -232 15 -433 26 -201 11 -384
22 -406 25 -23 2 -44 1 -48 -2z"/>
<path d="M496 2199 c-253 -38 -461 -71 -463 -72 -1 -2 2 -31 8 -65 10 -56 13
-61 33 -57 11 3 131 28 266 55 555 114 645 132 649 136 9 8 -11 74 -22 73 -7
-1 -219 -32 -471 -70z"/>
<path d="M3999 2215 c-1 -14 -2 -30 -3 -36 -1 -7 172 -50 444 -110 245 -54
455 -101 466 -104 19 -4 23 2 33 40 22 88 65 73 -451 159 -255 42 -469 76
-475 76 -7 0 -14 -11 -14 -25z"/>
<path d="M785 2050 c-121 -32 -325 -85 -453 -118 -129 -33 -236 -63 -239 -66
-8 -8 17 -105 29 -112 6 -4 213 58 460 137 l449 144 -5 30 c-4 16 -10 32 -14
36 -4 3 -106 -20 -227 -51z"/>
<path d="M3960 2054 c-10 -25 -13 -44 -7 -44 1 0 203 -68 447 -150 244 -83
449 -149 456 -146 12 5 40 103 32 112 -6 5 -895 254 -909 254 -5 0 -14 -12
-19 -26z"/>
<path d="M610 1783 c-239 -91 -437 -167 -439 -169 -6 -6 34 -106 44 -111 9 -3
859 368 872 380 7 8 -20 67 -30 67 -7 -1 -208 -76 -447 -167z"/>
<path d="M3904 1899 c-9 -17 -12 -35 -7 -39 6 -7 800 -377 851 -397 7 -3 22
16 37 52 14 32 24 59 23 61 -2 1 -181 73 -398 159 -217 86 -416 165 -442 176
l-48 19 -16 -31z"/>
<path d="M705 1590 c-226 -115 -414 -211 -420 -213 -10 -4 31 -104 47 -113 5
-4 811 455 827 471 7 8 -22 65 -33 65 -6 0 -195 -95 -421 -210z"/>
<path d="M3831 1749 l-20 -33 382 -229 c210 -126 396 -237 414 -248 l31 -20
31 57 c17 32 30 58 28 59 -2 2 -803 423 -829 437 -14 7 -22 2 -37 -23z"/>
<path d="M820 1409 c-212 -138 -391 -254 -399 -259 -12 -6 -8 -17 19 -59 19
-31 38 -50 46 -47 27 10 764 552 764 561 -1 10 -35 55 -42 55 -1 0 -176 -113
-388 -251z"/>
<path d="M3742 1610 l-22 -29 327 -247 c181 -136 348 -263 373 -282 25 -20 50
-39 56 -44 14 -10 90 90 77 102 -12 11 -781 530 -785 530 -2 0 -14 -13 -26
-30z"/>
<path d="M935 1229 c-204 -166 -371 -302 -372 -303 -1 -1 17 -23 41 -50 l42
-49 279 253 c154 140 315 286 358 325 l77 71 -28 27 -27 26 -370 -300z"/>
<path d="M3648 1493 c-8 -10 -18 -23 -22 -30 -5 -9 256 -261 661 -636 l31 -29
39 42 c21 24 38 47 38 51 0 7 -720 619 -728 619 -2 0 -11 -8 -19 -17z"/>
<path d="M1214 1207 c-109 -111 -260 -265 -336 -342 l-138 -140 48 -41 48 -42
299 335 c356 397 341 379 324 399 -35 43 -38 41 -245 -169z"/>
<path d="M3525 1365 l-29 -24 25 -28 c15 -15 154 -176 310 -358 156 -181 286
-332 289 -335 4 -3 28 14 55 37 l48 41 -333 346 c-183 190 -333 346 -334 346
0 -1 -14 -12 -31 -25z"/>
<path d="M1238 927 l-298 -372 43 -37 c23 -21 47 -38 53 -38 6 0 26 21 44 48
19 26 144 200 278 386 l243 339 -28 23 c-15 13 -30 23 -33 23 -3 0 -139 -167
-302 -372z"/>
<path d="M3400 1263 c-14 -9 -27 -18 -29 -19 -1 -2 120 -180 270 -398 l274
-394 25 15 c14 8 37 24 52 37 l28 22 -290 374 c-159 206 -293 376 -297 377 -5
2 -20 -4 -33 -14z"/>
<path d="M1659 1189 c-6 -12 -119 -190 -251 -397 -133 -207 -241 -382 -242
-390 -1 -7 22 -26 49 -42 l51 -29 204 361 c113 199 220 387 238 419 l32 57
-35 21 -35 20 -11 -20z"/>
<path d="M3260 1173 c-14 -9 -26 -17 -28 -18 -1 -1 17 -38 41 -81 25 -43 117
-214 207 -379 89 -165 173 -319 187 -343 l24 -42 42 25 c23 14 48 29 55 34 12
7 -18 59 -445 749 -24 39 -48 72 -51 72 -4 0 -19 -8 -32 -17z"/>
<path d="M1599 694 c-116 -235 -209 -428 -207 -429 2 -1 27 -15 56 -29 l53
-27 24 53 c66 148 355 819 355 827 0 8 -44 31 -61 31 -6 0 -105 -192 -220
-426z"/>
<path d="M3113 1098 c-13 -6 -23 -16 -23 -21 0 -14 349 -860 359 -870 10 -10
111 31 111 46 0 21 -405 857 -415 856 -5 0 -20 -5 -32 -11z"/>
<path d="M1798 613 l-166 -448 38 -17 c86 -40 67 -77 225 432 l142 455 -30 13
c-16 6 -32 12 -36 12 -4 0 -82 -201 -173 -447z"/>
<path d="M2957 1038 c-19 -7 -26 -15 -23 -26 22 -68 250 -852 254 -870 2 -12
8 -25 13 -28 14 -8 120 29 116 40 -144 421 -315 896 -322 895 -5 0 -23 -5 -38
-11z"/>
<path d="M2112 978 c-44 -162 -224 -889 -221 -893 6 -6 113 -33 117 -30 5 4
182 908 182 928 0 9 -6 17 -12 17 -7 0 -23 3 -35 6 -18 5 -23 0 -31 -28z"/>
<path d="M2810 1003 c-14 -3 -28 -8 -32 -11 -7 -7 155 -928 165 -938 7 -7 90
5 108 16 11 7 1 60 -53 292 -37 156 -86 365 -109 466 -24 100 -45 181 -48 181
-3 -1 -17 -4 -31 -6z"/>
<path d="M2276 948 c-23 -132 -127 -910 -122 -916 4 -3 33 -7 64 -7 l57 0 16
190 c36 417 60 692 62 725 2 33 0 35 -34 38 -34 3 -37 1 -43 -30z"/>
<path d="M2633 973 c-13 -2 -23 -11 -23 -19 0 -8 13 -202 30 -432 16 -229 31
-437 32 -462 l3 -45 60 4 c33 1 62 5 64 7 2 2 -23 216 -55 476 -63 503 -58
482 -111 471z"/>
<path d="M2432 598 c-7 -205 -15 -421 -19 -480 l-6 -108 62 0 61 0 0 480 0
480 -43 0 -43 0 -12 -372z"/>
</g>
</svg>
