<?xml version="1.0" encoding="iso-8859-1"?>
<!-- Uploaded to: SVG Repo, www.svgrepo.com, Generator: SVG Repo Mixer Tools -->
<svg fill="#000000" height="800px" width="800px" version="1.1" id="Layer_1" xmlns="http://www.w3.org/2000/svg" xmlns:xlink="http://www.w3.org/1999/xlink" 
	 viewBox="0 0 512 512" xml:space="preserve">
<g>
	<g>
		<g>
			<path d="M196.263,238.936c-9.412,0-17.067,7.654-17.067,17.067c0,9.412,7.654,17.067,17.067,17.067s17.067-7.654,17.067-17.067
				C213.33,246.59,205.676,238.936,196.263,238.936z"/>
			<path d="M132.668,290.136h-14.643c-21.214,0-41.916,3.866-61.645,11.511c17.399,75.895,78.071,136.576,153.976,153.975
				c7.637-19.729,11.511-40.431,11.511-61.645v-14.652C178.654,367.388,144.606,333.349,132.668,290.136z"/>
			<path d="M132.668,221.869c11.938-43.213,45.986-77.252,89.199-89.19v-14.652c0-21.214-3.874-41.916-11.511-61.645
				C134.451,73.782,73.779,134.462,56.38,210.358c19.729,7.646,40.431,11.511,61.645,11.511H132.668z"/>
			<path d="M379.325,221.869h14.643c21.222,0,41.916-3.866,61.645-11.511c-17.399-75.896-78.071-136.576-153.976-153.975
				c-7.637,19.729-11.511,40.431-11.511,61.645v14.652C333.339,144.617,367.387,178.656,379.325,221.869z"/>
			<path d="M255.997,213.336c9.412,0,17.067-7.654,17.067-17.067c0-9.412-7.654-17.067-17.067-17.067
				c-9.412,0-17.067,7.654-17.067,17.067C238.93,205.682,246.584,213.336,255.997,213.336z"/>
			<path d="M298.663,256.003c0,9.412,7.654,17.067,17.067,17.067s17.067-7.654,17.067-17.067c0-9.412-7.654-17.067-17.067-17.067
				S298.663,246.59,298.663,256.003z"/>
			<path d="M379.325,290.136c-11.938,43.213-45.986,77.252-89.199,89.19v14.652c0,21.214,3.874,41.916,11.511,61.645
				c75.904-17.399,136.576-78.08,153.976-153.975c-19.729-7.646-40.422-11.511-61.645-11.511H379.325z"/>
			<path d="M255.997,298.669c-9.412,0-17.067,7.654-17.067,17.067c0,9.412,7.654,17.067,17.067,17.067
				c9.412,0,17.067-7.654,17.067-17.067C273.063,306.324,265.409,298.669,255.997,298.669z"/>
			<path d="M256,0C114.842,0,0,114.842,0,256s114.842,256,256,256s256-114.842,256-256S397.158,0,256,0z M273.067,118.025
				c0-25.873,5.231-51.055,15.548-74.854c1.596-3.669,5.538-5.752,9.446-4.975c88.132,16.981,158.763,87.612,175.744,175.744
				c0.759,3.925-1.306,7.851-4.975,9.438c-23.799,10.325-48.981,15.556-74.854,15.556h-21.325c-4.019,0-7.484-2.79-8.346-6.707
				c-9.208-42.138-42.385-75.324-84.531-84.54c-3.917-0.853-6.707-4.326-6.707-8.337V118.025z M349.867,256
				c0,18.825-15.317,34.133-34.133,34.133c-18.825,0-34.133-15.309-34.133-34.133s15.309-34.133,34.133-34.133
				C334.549,221.867,349.867,237.175,349.867,256z M290.133,196.267c0,18.825-15.317,34.133-34.133,34.133
				c-18.825,0-34.133-15.309-34.133-34.133s15.309-34.133,34.133-34.133C274.816,162.133,290.133,177.442,290.133,196.267z
				 M230.4,256c0,18.825-15.317,34.133-34.133,34.133c-18.825,0-34.133-15.309-34.133-34.133s15.309-34.133,34.133-34.133
				C215.083,221.867,230.4,237.175,230.4,256z M38.178,213.939c16.99-88.132,87.62-158.763,175.753-175.744
				c3.917-0.802,7.851,1.306,9.446,4.975c10.317,23.799,15.556,48.981,15.556,74.854v21.325c0,4.011-2.799,7.484-6.716,8.337
				c-42.146,9.216-75.324,42.402-84.531,84.54c-0.862,3.917-4.326,6.707-8.337,6.707h-21.325c-25.873,0-51.063-5.231-74.863-15.556
				C39.492,221.798,37.419,217.865,38.178,213.939z M238.933,393.976c0,25.873-5.24,51.063-15.556,74.863
				c-1.374,3.157-4.48,5.129-7.825,5.129c-0.538,0-1.084-0.051-1.621-0.154c-88.132-16.99-158.763-87.62-175.753-175.744
				c-0.759-3.925,1.314-7.859,4.984-9.438c23.799-10.325,48.99-15.565,74.863-15.565h21.325c4.011,0,7.475,2.79,8.337,6.707
				c9.207,42.146,42.385,75.332,84.531,84.548c3.917,0.845,6.716,4.326,6.716,8.329V393.976z M221.867,315.733
				c0-18.825,15.309-34.133,34.133-34.133c18.816,0,34.133,15.309,34.133,34.133S274.816,349.867,256,349.867
				C237.175,349.867,221.867,334.558,221.867,315.733z M473.805,298.069c-16.981,88.132-87.612,158.754-175.744,175.744
				c-0.538,0.102-1.084,0.154-1.621,0.154c-3.345,0-6.451-1.971-7.825-5.129c-10.317-23.799-15.548-48.99-15.548-74.863v-21.325
				c0-4.002,2.79-7.484,6.707-8.329c42.146-9.216,75.324-42.402,84.531-84.548c0.862-3.917,4.326-6.707,8.346-6.707h21.325
				c25.873,0,51.055,5.239,74.854,15.565C472.499,290.219,474.564,294.144,473.805,298.069z"/>
		</g>
	</g>
</g>
</svg>